<svg xmlns="http://www.w3.org/2000/svg" width="1080" height="1920" viewBox="0 0 1080 1920" fill="none">
  <g fill="#0c1018">
    <rect x="0" y="760" width="90" height="420"/>
    <rect x="96" y="700" width="70" height="480"/>
    <rect x="176" y="780" width="110" height="400"/>
    <rect x="296" y="640" width="80" height="540"/>
    <rect x="386" y="720" width="150" height="460"/>
    <rect x="546" y="600" width="72" height="580"/>
    <rect x="628" y="680" width="100" height="500"/>
    <rect x="738" y="560" width="60" height="620"/>
    <rect x="808" y="700" width="160" height="480"/>
    <rect x="978" y="640" width="102" height="540"/>
  </g>
  <g fill="#d8c4a4" fill-opacity="0.38">
    <rect x="112" y="740" width="5" height="7"/>
    <rect x="130" y="770" width="4" height="6"/>
    <rect x="210" y="820" width="5" height="7"/>
    <rect x="320" y="690" width="5" height="6"/>
    <rect x="420" y="760" width="6" height="7"/>
    <rect x="570" y="640" width="5" height="7"/>
    <rect x="660" y="720" width="5" height="6"/>
    <rect x="760" y="600" width="4" height="6"/>
    <rect x="850" y="740" width="6" height="7"/>
    <rect x="1000" y="680" width="5" height="7"/>
    <rect x="440" y="820" width="5" height="6"/>
    <rect x="880" y="800" width="4" height="6"/>
    <rect x="240" y="880" width="5" height="7"/>
  </g>
  <rect x="0" y="1160" width="1080" height="760" fill="#080b10"/>
</svg>
